<?xml version="1.0" standalone="no"?>
<!DOCTYPE svg PUBLIC "-//W3C//DTD SVG 1.1//EN" "http://www.w3.org/Graphics/SVG/1.1/DTD/svg11.dtd">
<svg xmlns="http://www.w3.org/2000/svg" viewBox="0 0 64.47 53.2" width="64.47000122070312" height="53.20000076293945"><defs><style>.cls-1{fill:#0b0b0b;}</style></defs><g id="shay-white"><g id="emptiness"><path d="M155.87,396.51c0,.07,0,.1-.07.1h-2.65a2.5,2.5,0,0,0,.14.64,2,2,0,0,0,.27.51,1.24,1.24,0,0,0,.37.32,1,1,0,0,0,.44.11,1.21,1.21,0,0,0,.45-.08,1.25,1.25,0,0,0,.53-.45l.23.34a.1.1,0,0,1,0,.13l-.2.22-.27.21a1.68,1.68,0,0,1-.33.16,1.31,1.31,0,0,1-.41.06,1.37,1.37,0,0,1-.69-.18,1.57,1.57,0,0,1-.56-.5,2.41,2.41,0,0,1-.38-.77,3.53,3.53,0,0,1-.13-1,3.86,3.86,0,0,1,.12-1,2.45,2.45,0,0,1,.33-.77,1.51,1.51,0,0,1,.52-.49,1.33,1.33,0,0,1,.68-.18,1.53,1.53,0,0,1,.64.14,1.41,1.41,0,0,1,.52.46,2.38,2.38,0,0,1,.34.82A4.38,4.38,0,0,1,155.87,396.51Zm-.57-.51a2.64,2.64,0,0,0-.1-.68,1.52,1.52,0,0,0-.22-.48.88.88,0,0,0-.33-.28.9.9,0,0,0-.4-.09.87.87,0,0,0-.75.42,2.21,2.21,0,0,0-.35,1.11Z" transform="translate(-126.53 -347.79)"/><path d="M158,394.46a.74.74,0,0,0-.67.41,3,3,0,0,0-.24,1.41v2.29c0,.06,0,.1-.07.1h-.4s-.07,0-.07-.1V394.1c0-.06,0-.09.07-.09h.27a.06.06,0,0,1,.07.07l.07.65a1.53,1.53,0,0,1,.46-.65,1,1,0,0,1,.62-.19.94.94,0,0,1,.69.29,2.09,2.09,0,0,1,.42.75,1.66,1.66,0,0,1,.48-.8,1,1,0,0,1,.67-.24.88.88,0,0,1,.53.16,1.28,1.28,0,0,1,.39.44,2,2,0,0,1,.24.63,3.67,3.67,0,0,1,.08.75v2.7c0,.06,0,.1-.07.1h-.37s-.07,0-.07-.1v-2.7a4.38,4.38,0,0,0,0-.52,1.49,1.49,0,0,0-.15-.45.83.83,0,0,0-.26-.32.65.65,0,0,0-.39-.12.8.8,0,0,0-.39.09.74.74,0,0,0-.28.32,1.69,1.69,0,0,0-.18.55,5.13,5.13,0,0,0-.06.85v2.3c0,.06,0,.1-.07.1h-.37c-.05,0-.07,0-.07-.1v-2.7a3,3,0,0,0-.05-.52,1.25,1.25,0,0,0-.14-.45.83.83,0,0,0-.26-.32A.65.65,0,0,0,158,394.46Z" transform="translate(-126.53 -347.79)"/><path d="M162.42,394.09c0-.06,0-.09.07-.09h.29s.06,0,.07.08l.05.63a1.46,1.46,0,0,1,.48-.58,1.08,1.08,0,0,1,.66-.21,1.3,1.3,0,0,1,.68.17,1.51,1.51,0,0,1,.52.49,2.31,2.31,0,0,1,.34.76,4.4,4.4,0,0,1,.11,1,4.35,4.35,0,0,1-.11,1,2.31,2.31,0,0,1-.34.76,1.62,1.62,0,0,1-.52.49,1.4,1.4,0,0,1-.68.17,1.08,1.08,0,0,1-.64-.2,1.58,1.58,0,0,1-.48-.54v2.88c0,.06,0,.09-.07.09h-.36c-.05,0-.07,0-.07-.09Zm1.62,4.1a.82.82,0,0,0,.46-.13,1,1,0,0,0,.35-.37,1.9,1.9,0,0,0,.23-.58,3,3,0,0,0,.08-.75,3.09,3.09,0,0,0-.08-.77,1.86,1.86,0,0,0-.23-.59,1,1,0,0,0-.35-.39.83.83,0,0,0-.46-.14.89.89,0,0,0-.77.45,2.39,2.39,0,0,0-.35,1.19v.48a2.27,2.27,0,0,0,.35,1.16A.9.9,0,0,0,164,398.19Z" transform="translate(-126.53 -347.79)"/><path d="M167.18,392.49V394h1.11s.07,0,.07.09v.42c0,.06,0,.09-.07.09h-1.11v2.85a1.15,1.15,0,0,0,0,.36.64.64,0,0,0,.14.23.44.44,0,0,0,.19.12.51.51,0,0,0,.2,0,.56.56,0,0,0,.3-.07,1.28,1.28,0,0,0,.25-.15s.06,0,.08,0l.2.35a.09.09,0,0,1,0,.12,1.94,1.94,0,0,1-.29.2,1,1,0,0,1-.53.12,1.15,1.15,0,0,1-.52-.1.89.89,0,0,1-.35-.28,1.08,1.08,0,0,1-.19-.42,2.29,2.29,0,0,1-.06-.54v-2.85h-.55c-.05,0-.07,0-.07-.09v-.32a.09.09,0,0,1,.06-.1l.56-.09.07-1.53c0-.05,0-.08.07-.08h.33S167.18,392.43,167.18,392.49Z" transform="translate(-126.53 -347.79)"/><path d="M169.28,392.1a.56.56,0,0,1,.08-.3.24.24,0,0,1,.21-.12.27.27,0,0,1,.23.12.56.56,0,0,1,.08.3.53.53,0,0,1-.08.3.27.27,0,0,1-.23.12.24.24,0,0,1-.21-.12A.53.53,0,0,1,169.28,392.1Zm.14,6.57s-.07,0-.07-.1v-4.48c0-.06,0-.09.07-.09h.33c.05,0,.07,0,.07.09v4.48c0,.06,0,.1-.07.1Z" transform="translate(-126.53 -347.79)"/><path d="M172.36,394.46a.89.89,0,0,0-.8.49,3,3,0,0,0-.3,1.51v2.11c0,.06,0,.1-.07.1h-.4s-.07,0-.07-.1V394.1c0-.06,0-.09.07-.09h.26s.07,0,.07.07l.09.82a1.6,1.6,0,0,1,.51-.77,1.25,1.25,0,0,1,.78-.24,1.28,1.28,0,0,1,.65.16,1.64,1.64,0,0,1,.47.44,2.28,2.28,0,0,1,.29.63,3.08,3.08,0,0,1,.09.75v2.7c0,.06,0,.1-.07.1h-.39s-.07,0-.07-.1v-2.7a1.7,1.7,0,0,0-.29-1A1,1,0,0,0,172.36,394.46Z" transform="translate(-126.53 -347.79)"/><path d="M178.11,396.51c0,.07,0,.1-.07.1h-2.65a2.5,2.5,0,0,0,.15.64,1.76,1.76,0,0,0,.27.51,1.34,1.34,0,0,0,.36.32,1,1,0,0,0,.44.11,1.26,1.26,0,0,0,.46-.08,1.41,1.41,0,0,0,.3-.19,1.51,1.51,0,0,0,.23-.26l.23.34a.09.09,0,0,1,0,.13,1.9,1.9,0,0,1-.2.22,3,3,0,0,1-.26.21,1.68,1.68,0,0,1-.33.16,1.35,1.35,0,0,1-.41.06,1.43,1.43,0,0,1-.7-.18,1.66,1.66,0,0,1-.56-.5,2.4,2.4,0,0,1-.37-.77,3.52,3.52,0,0,1-.14-1,3.86,3.86,0,0,1,.12-1,2.71,2.71,0,0,1,.33-.77,1.54,1.54,0,0,1,.53-.49,1.3,1.3,0,0,1,.68-.18,1.52,1.52,0,0,1,.63.14,1.34,1.34,0,0,1,.52.46,2.39,2.39,0,0,1,.35.82A4.41,4.41,0,0,1,178.11,396.51Zm-.57-.51a2.29,2.29,0,0,0-.09-.68,1.53,1.53,0,0,0-.23-.48.85.85,0,0,0-.72-.37.9.9,0,0,0-.76.42,2.31,2.31,0,0,0-.35,1.11Z" transform="translate(-126.53 -347.79)"/><path d="M181.14,394.23a.13.13,0,0,1,0,.06.1.1,0,0,1,0,.07l-.16.36s-.06.06-.1,0l-.31-.16a1.14,1.14,0,0,0-.49-.11,1.23,1.23,0,0,0-.26,0,.81.81,0,0,0-.27.11.53.53,0,0,0-.21.21.58.58,0,0,0-.09.33.5.5,0,0,0,.11.34.78.78,0,0,0,.26.22,1.3,1.3,0,0,0,.3.13l.2.08.3.14a1.94,1.94,0,0,1,.4.28,1.77,1.77,0,0,1,.36.44,1.38,1.38,0,0,1,.15.67,1.29,1.29,0,0,1-.11.57,1.1,1.1,0,0,1-.31.43,1.25,1.25,0,0,1-.47.25,2,2,0,0,1-.61.08,1.6,1.6,0,0,1-.7-.18,2.84,2.84,0,0,1-.43-.31.09.09,0,0,1,0-.13l.19-.36c0-.05.06-.06.1,0l.15.1.2.12.25.1a1.27,1.27,0,0,0,.28.06,1,1,0,0,0,.35,0,.65.65,0,0,0,.5-.36.68.68,0,0,0,.08-.36.6.6,0,0,0-.1-.35,1.07,1.07,0,0,0-.26-.26,2.39,2.39,0,0,0-.34-.21l-.35-.15a2.45,2.45,0,0,1-.35-.19,1.64,1.64,0,0,1-.33-.26,1.37,1.37,0,0,1-.23-.37,1.26,1.26,0,0,1-.09-.49,1.13,1.13,0,0,1,.11-.54,1.3,1.3,0,0,1,.31-.39,1.27,1.27,0,0,1,.43-.23,1.68,1.68,0,0,1,1.11,0A2.44,2.44,0,0,1,181.14,394.23Z" transform="translate(-126.53 -347.79)"/><path d="M184.36,394.23a.07.07,0,0,1,0,.06.09.09,0,0,1,0,.07l-.16.36s-.06.06-.1,0l-.31-.16a1.14,1.14,0,0,0-.49-.11,1.23,1.23,0,0,0-.26,0,.81.81,0,0,0-.27.11.53.53,0,0,0-.21.21.58.58,0,0,0-.09.33.5.5,0,0,0,.11.34.78.78,0,0,0,.26.22,1.3,1.3,0,0,0,.3.13l.2.08.3.14a1.94,1.94,0,0,1,.4.28,2,2,0,0,1,.36.44,1.38,1.38,0,0,1,.15.67,1.45,1.45,0,0,1-.11.57,1.1,1.1,0,0,1-.31.43,1.25,1.25,0,0,1-.47.25,2,2,0,0,1-.61.08,1.6,1.6,0,0,1-.7-.18,2.41,2.41,0,0,1-.43-.31.09.09,0,0,1,0-.13l.19-.36c0-.05.06-.06.1,0l.14.1.21.12.25.1a1.27,1.27,0,0,0,.28.06,1,1,0,0,0,.35,0,.73.73,0,0,0,.3-.12.68.68,0,0,0,.2-.24.68.68,0,0,0,.08-.36.6.6,0,0,0-.1-.35,1.28,1.28,0,0,0-.26-.26,2.39,2.39,0,0,0-.34-.21l-.35-.15a2,2,0,0,1-.35-.19,1.64,1.64,0,0,1-.33-.26,1.37,1.37,0,0,1-.23-.37,1.1,1.1,0,0,1-.1-.49,1.13,1.13,0,0,1,.12-.54,1.3,1.3,0,0,1,.31-.39,1.27,1.27,0,0,1,.43-.23,1.68,1.68,0,0,1,1.11,0A2.44,2.44,0,0,1,184.36,394.23Z" transform="translate(-126.53 -347.79)"/></g><g id="shay_sblog" data-name="shay'sblog"><path d="M126.69,386.3a.39.39,0,0,1-.16-.34.46.46,0,0,1,.07-.26c.06-.09.12-.14.19-.14l.93.14c.58.08,1.21.15,1.88.21l.58,0a8.7,8.7,0,0,0,1.62-.16,4.15,4.15,0,0,0,1.91-.83,1.71,1.71,0,0,0,.64-1.32.3.3,0,0,0,0-.13,2.05,2.05,0,0,0-.75-1.44,19.51,19.51,0,0,0-2.22-1.67,11.38,11.38,0,0,1-2.07-1.65,4.05,4.05,0,0,1-1-2.08,5.68,5.68,0,0,1,.07-2.44,10.33,10.33,0,0,1,.93-2.41,9.45,9.45,0,0,1,1.52-2.11,7.53,7.53,0,0,1,1.86-1.44,4.42,4.42,0,0,1,1.61-.53h.26a2.56,2.56,0,0,1,2.43,1.64,3.9,3.9,0,0,1,.3,1.22c0,.2,0,.39,0,.55a3.68,3.68,0,0,1,0,.51q-.06.39-.21,1.23a9.76,9.76,0,0,1-.3,1.29c-.06.15-.15.21-.29.18a.29.29,0,0,1-.22-.3c0-.07,0-.16,0-.26s0-.21.05-.33.07-.31.13-.61.11-.6.17-.92a4.89,4.89,0,0,0,.07-.83,3.36,3.36,0,0,0-.21-1.2,2,2,0,0,0-1.24-1.23,2.46,2.46,0,0,0-.72-.11,3.13,3.13,0,0,0-1.29.32,6.15,6.15,0,0,0-2,1.51,11.36,11.36,0,0,0-1.55,2.29,7.21,7.21,0,0,0-.81,2.41,5.89,5.89,0,0,0-.05.69,3.38,3.38,0,0,0,.16,1.09,3.15,3.15,0,0,0,.83,1.33,10.18,10.18,0,0,0,1.21,1l1.56,1.09a12,12,0,0,1,1.57,1.29,2.61,2.61,0,0,1,.63.9,2.85,2.85,0,0,1,.22,1.13,2.76,2.76,0,0,1-.26,1.2,2.68,2.68,0,0,1-.92,1.05,4.92,4.92,0,0,1-1.7.75,9.64,9.64,0,0,1-1.76.14c-.4,0-.83,0-1.29-.05A7,7,0,0,1,126.69,386.3Z" transform="translate(-126.53 -347.79)"/><path d="M143,377.16c.11-.15.21-.23.32-.23s.17.07.21.21a.64.64,0,0,1-.06.46c-.52.94-.86,1.52-1,1.74a10.14,10.14,0,0,1-.74.94,1.28,1.28,0,0,1-.54.37.77.77,0,0,1-.25,0,.87.87,0,0,1-.37-.09,1,1,0,0,1-.45-.65,4.77,4.77,0,0,1-.12-1,3.64,3.64,0,0,1,.05-.6c.11-.45.22-1,.35-1.55a4.9,4.9,0,0,0,.14-1,1.4,1.4,0,0,0,0-.37c0-.18-.09-.28-.19-.28s-.31.17-.56.51a21.67,21.67,0,0,0-2.39,5.31s0,0,0,.06,0,.07,0,.08l0,.09a.34.34,0,0,1,0,.1l-.06.06s-.05.05-.07.05l-.08,0a.08.08,0,0,1-.1,0,.35.35,0,0,1-.22-.32,1.47,1.47,0,0,1,0-.51c.32-2,.72-4.17,1.22-6.5s.89-4.07,1.19-5.2c.06-.19.16-.28.3-.28a.3.3,0,0,1,.23.11.56.56,0,0,1,.08.3.53.53,0,0,1,0,.12c-.25,1-.4,1.65-.46,1.94-.11.54-.56,2.72-1.34,6.56l0,.13,0,0a26.32,26.32,0,0,1,1.33-2.57c.41-.58.78-.87,1.1-.87h0c.34,0,.58.28.72.76a2.8,2.8,0,0,1,.07.65,8.82,8.82,0,0,1-.2,1.61,10.42,10.42,0,0,0-.26,1.92,2.88,2.88,0,0,0,0,.32c0,.28.15.37.35.27a1.94,1.94,0,0,0,.6-.51,4.86,4.86,0,0,0,.47-.64c.11-.18.27-.46.46-.84S143,377.24,143,377.16Z" transform="translate(-126.53 -347.79)"/><path d="M148.1,377.48c.11-.2.25-.22.41-.07a.41.41,0,0,1,.06.53,11.39,11.39,0,0,1-1.35,2,1.76,1.76,0,0,1-1.1.62.61.61,0,0,1-.24,0c-.35-.16-.56-.55-.63-1.18v-.92l-1.17,1.43a1.16,1.16,0,0,1-.86.53c-.29,0-.49-.23-.59-.69a2.76,2.76,0,0,1,0-.44,4.75,4.75,0,0,1,.25-1.36,8.42,8.42,0,0,1,.91-2.05,3.27,3.27,0,0,1,1.06-1.19,1.64,1.64,0,0,1,.74-.23q.58,0,.78.81a1.19,1.19,0,0,1,.06.37c0,.12,0,.23,0,.31a2.47,2.47,0,0,1,0,.34,2.84,2.84,0,0,1-.06.28c0,.06,0,.16-.07.31a1.1,1.1,0,0,0-.07.26,7.65,7.65,0,0,0-.26,1.82v.19c0,.43.11.65.28.65a.4.4,0,0,0,.19-.07A6.32,6.32,0,0,0,148.1,377.48Zm-2.48-.62a1,1,0,0,0,.17-.51,4.09,4.09,0,0,0,0-.46,1.47,1.47,0,0,0,0-.32.48.48,0,0,0-.07-.23.28.28,0,0,0-.24-.17c-.19,0-.44.17-.74.49a6.67,6.67,0,0,0-1.43,3,2,2,0,0,0-.07.53,1.22,1.22,0,0,0,0,.34,4.28,4.28,0,0,0,.62-.56c.16-.19.41-.5.72-.91S145.27,377.28,145.62,376.86Z" transform="translate(-126.53 -347.79)"/><path d="M153.16,377.09a.17.17,0,0,1,.12,0,.28.28,0,0,1,.22.12.45.45,0,0,1,.1.28.38.38,0,0,1-.2.37,10,10,0,0,0-1.76,1.29.86.86,0,0,0-.28.55c0,.1-.05.39-.12.89s-.12.84-.16,1-.09.5-.17,1-.16.83-.22,1-.15.53-.25.92a5,5,0,0,1-.34.93c-.11.22-.24.46-.39.71a2.22,2.22,0,0,1-.49.61,1.91,1.91,0,0,1-.57.35,1.29,1.29,0,0,1-.45.09.84.84,0,0,1-.63-.28,1.86,1.86,0,0,1-.4-1.29,5.42,5.42,0,0,1,.14-1.11,11,11,0,0,1,3.18-5.24,1.77,1.77,0,0,0,.14-.17,1.09,1.09,0,0,0,.08-.15.77.77,0,0,0,.07-.24l.07-.3c0-.09,0-.25.07-.49s.07-.45.09-.63l0,0a7.1,7.1,0,0,0-.31.68c-.17.39-.29.64-.36.76s-.17.3-.32.56a3.13,3.13,0,0,1-.43.62,3.23,3.23,0,0,1-.45.38.69.69,0,0,1-.39.14.68.68,0,0,1-.49-.28,1.82,1.82,0,0,1-.29-1.11,4.18,4.18,0,0,1,0-.49,16.67,16.67,0,0,1,1-3.83c.09-.24.22-.35.38-.32s.23.15.23.37-.14.66-.4,1.66a12.38,12.38,0,0,0-.58,2.75c0,.24,0,.37.16.37s.46-.2.68-.6.64-1.3,1.25-2.7c.26-.59.46-1.05.62-1.39,0-.09.06-.15.07-.18l.11-.15c.05-.07.09-.1.13-.08l.19,0a.33.33,0,0,1,.2.24,1.64,1.64,0,0,1,0,.51c0,.22-.06.46-.1.7s-.11.58-.18,1-.12.84-.16,1.26a2.5,2.5,0,0,0,.27-.19l.61-.45A6.61,6.61,0,0,1,153.16,377.09Zm-2.62,3.28v-.14l-.31.31a8.42,8.42,0,0,0-.69.84,12.91,12.91,0,0,0-.81,1.22,7.88,7.88,0,0,0-.67,1.49,5.24,5.24,0,0,0-.3,1.61.69.69,0,0,0,.25.58.55.55,0,0,0,.25.07.48.48,0,0,0,.27-.09,1.81,1.81,0,0,0,.56-.52,3.57,3.57,0,0,0,.47-.94c.14-.38.26-.73.35-1a11.48,11.48,0,0,0,.28-1.24c.09-.53.16-.9.19-1.11S150.47,380.85,150.54,380.37Z" transform="translate(-126.53 -347.79)"/><path d="M155,370.17a.64.64,0,0,1-.27.42c-.11.06-.2,0-.28-.1a.59.59,0,0,1-.06-.46c.19-1.27.29-1.93.31-2s.16-.27.31-.26.23.14.27.35t0,.39c0,.23,0,.51-.09.85A7.47,7.47,0,0,1,155,370.17Z" transform="translate(-126.53 -347.79)"/><path d="M158.75,378.64c0,.06,0,.09,0,.09a1.92,1.92,0,0,1,.21.92,2.54,2.54,0,0,1-.19,1,2.1,2.1,0,0,1-.57.78,1.42,1.42,0,0,1-.84.35h0a.72.72,0,0,1-.64-.35,1.13,1.13,0,0,1-.2-.67c0-.09,0-.18,0-.28a2.67,2.67,0,0,1,.54-1.2l.53-.64a1,1,0,0,0-.16-.16,2.29,2.29,0,0,1-.59-1.23,1.84,1.84,0,0,1,0-.39,2.86,2.86,0,0,1,.21-1.06,2.82,2.82,0,0,1,.82-1.16,1.12,1.12,0,0,1,.68-.27.73.73,0,0,1,.35.09.71.71,0,0,1,.42.47,1.17,1.17,0,0,1,0,.66c0,.2-.14.29-.28.28a.21.21,0,0,1-.2-.14,1.47,1.47,0,0,1-.08-.28.38.38,0,0,0-.11-.23c-.06-.06-.16-.05-.29,0a1.6,1.6,0,0,0-.82,1.09,2.49,2.49,0,0,0-.07.53,1.28,1.28,0,0,0,.28.81l.47.44a6,6,0,0,1,2.15-1h.07a.26.26,0,0,1,.22.13.48.48,0,0,1,.1.29c0,.23-.09.37-.27.41A8.65,8.65,0,0,0,158.75,378.64Zm-.56,1.41a1.64,1.64,0,0,0,.05-.37,1,1,0,0,0-.14-.53,2.41,2.41,0,0,0-1,1.5c0,.24.11.33.33.25A1.13,1.13,0,0,0,158.19,380.05Z" transform="translate(-126.53 -347.79)"/><path d="M170.45,369.13a15.48,15.48,0,0,0-3.29,1.46c-.92.56-1.39,1-1.43,1.26s-.16.38-.36.32a.34.34,0,0,1-.28-.39l0-.16a4.67,4.67,0,0,1,2.18-1.95,15.13,15.13,0,0,1,3.25-1.44.41.41,0,0,0,.32-.24c.08-.18.19-.2.34-.06a.21.21,0,0,0,.16.09.09.09,0,0,0,.07,0,10.54,10.54,0,0,1,2.32-.3,3.85,3.85,0,0,1,2.4.67,1.49,1.49,0,0,1,.64,1.2,1.89,1.89,0,0,1-.17.74,2.72,2.72,0,0,1-.6.9c-.34.39-.62.68-.82.87s-.37.36-.54.5l-1.11.94-1.87,1.62v.07l.37,0,.52.07.56.11c.25.05.47.1.64.15a5.54,5.54,0,0,1,.64.2,7,7,0,0,1,.66.3,5.68,5.68,0,0,1,.6.4,3.85,3.85,0,0,1,.56.51,3.46,3.46,0,0,1,.95,2.4,5.35,5.35,0,0,1-.4,1.89,10.45,10.45,0,0,1-3.57,4.39,13.9,13.9,0,0,1-5.67,2.58,7.52,7.52,0,0,1-1.5.16h-.16a3.09,3.09,0,0,1-1.26-.27,2.34,2.34,0,0,1-.8-.63,1.48,1.48,0,0,1-.33-1,3,3,0,0,1,.21-1.06,4.35,4.35,0,0,1,.76-1.26,9,9,0,0,1,1.4-1.33c.29-.23.57-.44.82-.62s.44-.32.56-.39l.32-.21a.59.59,0,0,0,.18-.17.64.64,0,0,0,.06-.22q.52-3.56,1.27-6.84c.49-2.18.94-3.88,1.33-5.1Zm-2.85,13.45a6.09,6.09,0,0,0-1.06.69,9.4,9.4,0,0,0-1.31,1.16,3.33,3.33,0,0,0-1.12,2,.85.85,0,0,0,.35.7,2.35,2.35,0,0,0,1.5.41,8.53,8.53,0,0,0,1.95-.27,13.31,13.31,0,0,0,2.27-.79,13.88,13.88,0,0,0,2.13-1.2,14.33,14.33,0,0,0,1.8-1.43,9.75,9.75,0,0,0,1.36-1.55,6.53,6.53,0,0,0,.84-1.57,3.78,3.78,0,0,0,.23-1.29v-.21a2.43,2.43,0,0,0-.45-1.27,3.78,3.78,0,0,0-1.26-1.07,5.49,5.49,0,0,0-1.45-.57q-.66-.13-1.35-.24a5.5,5.5,0,0,1-.85-.17.47.47,0,0,1-.31-.49,1.16,1.16,0,0,1,.36-.76c.41-.41,1-1,1.82-1.63s1.47-1.26,2-1.76a4.8,4.8,0,0,0,1-1.32.74.74,0,0,0,.09-.32c0-.34-.3-.6-.91-.79a5.55,5.55,0,0,0-1.64-.23,10.19,10.19,0,0,0-2.32.3.36.36,0,0,0-.23.26c-.54,1.84-1,3.63-1.41,5.35s-.8,3.93-1.22,6.6a6.37,6.37,0,0,0,.71-.33l1.75-.85c.81-.4,1.76-.82,2.83-1.29a1,1,0,0,1,.31-.07c.18,0,.28.11.32.31a.57.57,0,0,1,0,.13.51.51,0,0,1-.35.47l-1.2.53c-1.37.6-2.32,1-2.85,1.31l-1.52.74v0a.43.43,0,0,0-.2.32q0,.24-.21,1.62c-.05.46-.1.84-.14,1.13s0,.4,0,.63,0,.39,0,.49a1.57,1.57,0,0,1,0,.3.29.29,0,0,1-.1.2.31.31,0,0,1-.17.05c-.18,0-.27-.17-.27-.47S167.36,384.72,167.6,382.58Z" transform="translate(-126.53 -347.79)"/><path d="M181.45,377.39c.1-.21.24-.26.41-.13a.41.41,0,0,1,.09.55q-.47,1-.78,1.59a2.28,2.28,0,0,1-.81,1,1.11,1.11,0,0,1-.66.25.94.94,0,0,1-.77-.46,3.73,3.73,0,0,1-.54-2.24,14.89,14.89,0,0,1,.32-2.77c.51-2.61,1-4.72,1.36-6.3q.09-.3.33-.3a.3.3,0,0,1,.24.13.5.5,0,0,1,.09.31.2.2,0,0,1,0,.11c0,.16-.2.93-.5,2.32s-.55,2.57-.73,3.52-.29,1.69-.34,2.2c0,.21,0,.45,0,.71a7.86,7.86,0,0,0,0,.93,1.58,1.58,0,0,0,.24.76.42.42,0,0,0,.32.16.54.54,0,0,0,.21-.05.47.47,0,0,0,.2-.1l.2-.2.18-.2a1.91,1.91,0,0,0,.19-.28c.07-.12.12-.22.15-.28s.09-.17.17-.32l.15-.3a3.19,3.19,0,0,1,.16-.31A2,2,0,0,0,181.45,377.39Z" transform="translate(-126.53 -347.79)"/><path d="M185.85,377c.15-.14.28-.11.4.09a.4.4,0,0,1-.05.53,4.34,4.34,0,0,1-1.09.84,4.29,4.29,0,0,1-1.18.25,3.25,3.25,0,0,1-.7,1.2,1.17,1.17,0,0,1-.79.42h0a.92.92,0,0,1-.67-.3,1.64,1.64,0,0,1-.4-.88c0-.2,0-.39,0-.56s0-.3,0-.43a4.35,4.35,0,0,1,.1-.6.91.91,0,0,0,0-.5,3.89,3.89,0,0,1-.13-.68.46.46,0,0,1,0-.14,2.45,2.45,0,0,1,.18-.79c.22-.55.54-.83,1-.83l.08,0a.41.41,0,0,0,.33-.19c.2-.31.37-.46.51-.46a.21.21,0,0,1,.18.12l.06.09a.3.3,0,0,1,0,.1v.11a.44.44,0,0,1,0,.1l0,.09a.31.31,0,0,1-.05.11.21.21,0,0,0-.05.09l-.06.1-.07.11a3.64,3.64,0,0,1,.8,2.4c0,.14,0,.29,0,.46A2.56,2.56,0,0,0,185.85,377Zm-3.77,1.09a3.43,3.43,0,0,0-.07.64.87.87,0,0,0,.14.58.38.38,0,0,0,.29.16.62.62,0,0,0,.33-.11,1.18,1.18,0,0,0,.46-.72l-.58-.22Zm1.36-.23a2.63,2.63,0,0,0,.05-.49,2.85,2.85,0,0,0-.1-.74,1.69,1.69,0,0,0-.49-.88,6.52,6.52,0,0,0-.61,1.46A2,2,0,0,0,183.44,377.88Z" transform="translate(-126.53 -347.79)"/><path d="M190.53,377.32a.23.23,0,0,1,.15-.07.26.26,0,0,1,.22.12.4.4,0,0,1,.1.3.48.48,0,0,1-.06.24,1,1,0,0,1-.23.24,4,4,0,0,1-.37.28c-.13.09-.32.25-.58.46s-.51.45-.77.69a.9.9,0,0,0-.26.51,32.47,32.47,0,0,1-1.36,5.36c-.33.84-.72,1.33-1.17,1.45a.53.53,0,0,1-.2.05c-.29,0-.49-.23-.61-.67a2.8,2.8,0,0,1-.08-.67,7.68,7.68,0,0,1,1-3.23,16.21,16.21,0,0,1,.89-1.52c.3-.42.51-.73.66-.93a1.32,1.32,0,0,0,.27-.58c0-.09.11-.54.28-1.36l0,0c-.39.63-.76,1.19-1.1,1.68s-.76.83-1.06.83h-.09c-.31-.06-.5-.37-.56-.94,0-.13,0-.26,0-.39a6.06,6.06,0,0,1,.36-1.92,7.19,7.19,0,0,1,1.22-2.15,1.85,1.85,0,0,1,1.26-.74l.19,0a1,1,0,0,1,.6.42,1.53,1.53,0,0,1,.24.87v0c0,.35,0,.72-.08,1.12s-.1.74-.15,1.06a4.06,4.06,0,0,0-.08.54,7.34,7.34,0,0,1,.71-.55Zm-3.18,5.36c0-.05.12-.47.31-1.27l0,0a14.47,14.47,0,0,0-1.07,1.87,8.32,8.32,0,0,0-.41,1,5.24,5.24,0,0,0-.23,1.08,1.94,1.94,0,0,0,0,.24.74.74,0,0,0,.14.48.59.59,0,0,0,.31-.37,11.54,11.54,0,0,0,.47-1.07C186.89,384.4,187.07,383.75,187.35,382.68Zm1.43-6.74v-.07a.79.79,0,0,0-.17-.55.37.37,0,0,0-.44-.05,2.68,2.68,0,0,0-1.09,1.16,6.7,6.7,0,0,0-.76,1.86,4.12,4.12,0,0,0-.14.92,1.16,1.16,0,0,0,.07.44,2,2,0,0,0,.58-.56,8.61,8.61,0,0,0,.6-.88c.17-.28.36-.63.57-1l.36-.64Z" transform="translate(-126.53 -347.79)"/></g><g id="mu"><path class="cls-1" d="M158.21,352.63a7,7,0,0,1,.09,1.38,18.43,18.43,0,0,0,.52,4c.18.13.43,0,.55-.23a1.73,1.73,0,0,0,.15-.8c0-.82-.24-1.6-.33-2.41s-.06-1.36-.14-2c-.06-.46-.2-1-.53-1.14-.17-.08-.72-.11-.76.23C157.75,351.76,158.17,352.41,158.21,352.63Z" transform="translate(-126.53 -347.79)"/><path class="cls-1" d="M160,356.93a1.24,1.24,0,0,0-.15.8c.14.35.52.15.67-.08a2.11,2.11,0,0,0,.2-.63,24.74,24.74,0,0,0,.44-3.95,2.48,2.48,0,0,0-.27-1.58.91.91,0,0,0-1.21-.29c-.09,0,.35.58.37.62a3.66,3.66,0,0,1,.18,1.16c0,.9,0,1.82,0,2.72a3.64,3.64,0,0,1-.06.81A3.41,3.41,0,0,1,160,356.93Z" transform="translate(-126.53 -347.79)"/><path class="cls-1" d="M161.91,354.78a17.47,17.47,0,0,0-.67,2.77.58.58,0,0,0,0,.19.25.25,0,0,0,.14.11c.21.1.47.18.64,0a.8.8,0,0,0,.15-.29,17.66,17.66,0,0,0,.72-4l.12-1.17a1.45,1.45,0,0,0,0-.55.88.88,0,0,0-.18-.33,1.07,1.07,0,0,0-1.16-.51A5.44,5.44,0,0,1,161.91,354.78Z" transform="translate(-126.53 -347.79)"/><path class="cls-1" d="M161.55,353.55a1.81,1.81,0,0,1,1.63.27,1.62,1.62,0,0,1,.44.84,6.53,6.53,0,0,1-1.71.1,29.74,29.74,0,0,0-5.63,1,2.24,2.24,0,0,1-2.07-.84c.34-.25,1.1-.16,1.52-.25s1-.24,1.51-.34C158.67,354,160.11,353.78,161.55,353.55Z" transform="translate(-126.53 -347.79)"/><path d="M156.48,358.26a1.17,1.17,0,0,1,.45-.09,18.26,18.26,0,0,0,2.79-.67,3.63,3.63,0,0,1,2.8.25.45.45,0,0,1,.21.22.43.43,0,0,1-.26.53,1,1,0,0,1-.54-.1,3.3,3.3,0,0,0-1.76.07l-2.93.65a1.82,1.82,0,0,1-.61.07C156,359.1,155.84,358.6,156.48,358.26Z" transform="translate(-126.53 -347.79)"/><path d="M155,361.28a3,3,0,0,1,.17.69,2.71,2.71,0,0,1-.63,1.67c0,.06-.09.13-.15.14a.2.2,0,0,1-.11,0,1.12,1.12,0,0,1-.45-1,3.09,3.09,0,0,1,.32-1.16c.08-.18.31-1,.47-1S154.89,361,155,361.28Z" transform="translate(-126.53 -347.79)"/><path d="M156.75,361a4.62,4.62,0,0,0,.18,1.29,1.31,1.31,0,0,0,.25.5.34.34,0,0,0,.42.11.75.75,0,0,0,.27-.43,4.05,4.05,0,0,0,.17-1.06.86.86,0,0,0,0-.39.67.67,0,0,0-.18-.25c-.29-.31-.68-.75-1.07-.73C156.73,360.38,156.75,360.72,156.75,361Z" transform="translate(-126.53 -347.79)"/><path d="M159.31,361.3a2.24,2.24,0,0,0,.44.87,2.08,2.08,0,0,0,.25.38.27.27,0,0,0,.36.06.83.83,0,0,0,.16-.44,3.11,3.11,0,0,0-.08-1.58,2.69,2.69,0,0,0-.19-.32c-.18-.26-.74-1.1-1-.7-.08.14,0,.53,0,.69C159.34,360.6,159.26,361,159.31,361.3Z" transform="translate(-126.53 -347.79)"/><path d="M162.12,361a4.42,4.42,0,0,0,.17.55,1,1,0,0,0,.87.65.34.34,0,0,0,.29-.15.48.48,0,0,0,.07-.2,1.71,1.71,0,0,0-.17-1.14,2.92,2.92,0,0,0-.29-.4l-.34-.4a.81.81,0,0,0-.16-.16.49.49,0,0,0-.18-.08c-.23-.08-.7-.38-.89-.17A9.49,9.49,0,0,1,162.12,361Z" transform="translate(-126.53 -347.79)"/><path d="M155.67,352.2a6.26,6.26,0,0,0,1.46-1.74c.06-.1.13-.21.23-.23a.25.25,0,0,1,.16,0,2.2,2.2,0,0,0,1.49-.1l1.48-.46a1.09,1.09,0,0,1,.47-.06,2,2,0,0,1,.32.1.64.64,0,0,0,.81-.68.71.71,0,0,0-.69-.61,3.84,3.84,0,0,0-1.68.35l-1.51.55a.71.71,0,0,1-.47.07.43.43,0,0,1-.27-.46c0-.12.09-.21.12-.33a.63.63,0,0,0-.45-.7c-.57-.17-.77-.37-.91.42-.11.64-.22,1.27-.34,1.9s-.26,1.21-.42,1.81-.16.36.2.41.42.16.55.82.29,1.52.43,2.28a16.25,16.25,0,0,1,.27,1.7c0,.44.09,1,.4,1.13s.6-.15.71-.52a3.12,3.12,0,0,0,0-1.18l-.12-.89a20.3,20.3,0,0,0-.63-3.25,1.2,1.2,0,0,0-.23-.45.72.72,0,0,0-.49-.13h-.79c-.14,0-.32,0-.34.22a.84.84,0,0,1,.49.24" transform="translate(-126.53 -347.79)"/></g></g></svg>