<?xml version="1.0" standalone="no"?>
<!DOCTYPE svg PUBLIC "-//W3C//DTD SVG 1.1//EN" "http://www.w3.org/Graphics/SVG/1.1/DTD/svg11.dtd">
<svg xmlns="http://www.w3.org/2000/svg" id="signature" viewBox="0 0 470.63 373.39" width="470.6300048828125" height="373.3900146484375"><path d="M526.63,552.22c-6-9.52-26.09-4.88-34.33-4.9-11,10.4-31.07,6-45.4,9.82-1.6,1.17-5.37-.79-3.45-2,21.5-19-21.84-20.17-30.38-7.15,8.61,23.13-39.37,9-57.2,7.56,12.55-1.71,19.72-13.31,5.34-18.56-14.37-2.83-59.61.7-27.5,19-45.47,11.87-32.47-82.21-46.74-37.91-16.19,79.39-56-48.79-86.6-61.28,41.31-68,85.37-219.32-36.61-221.79-17.6.12-35.51,1.63-53.07,8.83l-15.53,8.51c-4,3.85-8.55,7.3-11.88,12-34.75,51.48-19.54,157.25-1.41,199.39C69.72,413.06,64.7,361.38,72.29,308.3a77.16,77.16,0,0,1,20.12-42A74.84,74.84,0,0,1,117,248.9,70.06,70.06,0,0,1,133.76,244c4.36-.7,8.93-.64,13.37-1.21,2.11-.27,4.16-.87,6.29-1,2.32-.12,4.64,0,7-.05,3.34-.08,6.7-.1,10,.05,6.64.32,13.32,1.37,19.42,4.09l.17.07c.74.34,1.48.7,2.19,1.09,116.39,19.81-29.93,320.31-8.29,160.9-8-14.94-8.53,35.94-7.21,41.74-5.67,10.57-21.31,17.93-26.58,31.67-9,39.76,36.72-21.25,26.92,19.95,1.64,31.9,17.21,147.85-38.72,84.76-6.65-4.25-9.75-14.68-15.6-18-.72-.41-.58,2.29-.51,2.51a7.63,7.63,0,0,0,2.23,2.64c.69.67,1.91,1.42,2.3,2.33.63,1.43.14,3,1.13,4.45,1.38,2,3.47,3.69,5,5.65a71.85,71.85,0,0,0,5.07,5.55,104.57,104.57,0,0,0,9.13,8.61c4.25,3.51,9.13,7,14.6,8.26,8.58,1.94,14.09-4.25,17-11.62,4.24-10.76,4.89-23,5.21-34.43.37-13.22-.24-26.46-1.15-39.65-.48-7-1.09-14-1.65-21.06,0-15.8-.61-23.25,13.15-35.84,26.95,3.42,40.68,55.1,61.84,75.26,30.32,43.63,33.48-35.28,36.08-12.55,5.07,21.94,25.61,42,48.43,31,40.31,9.93,83.1,3.72,122.76,1.87,17-.2,31.66-10.19,48.77-9,3.07,1.21,9-.33,8.9,4.53-2.44,8.6,7.88,13.69,12,4.65C524.27,560.52,529.44,557,526.63,552.22Zm-372.47-63c3.49-10.13,12-28.41,22.78-26.72C181,477.24,167.16,485.26,154.16,489.2ZM181,464.14c-1.12-5.69,6-6.86,8.93-3.14C189.07,465.31,179.22,475,181,464.14ZM328.82,543c12.37-2.8,26.7-7.65,36.4,3.14C357.89,555.37,328.9,556.81,328.82,543Zm99.45,13c-23.36-5.1,4.89-13.76,14.4-11.94C447.66,550.43,432.67,555.05,428.27,556Z" transform="translate(-62.42 -235.02)"/></svg>